<?xml version="1.0" encoding="UTF-8"?>
<svg xmlns="http://www.w3.org/2000/svg" viewBox="0 0 128 128">
  <defs>
    <radialGradient id="bg" cx="50%" cy="50%" r="70%">
      <stop offset="0%" stop-color="#16223a"/>
      <stop offset="100%" stop-color="#070c16"/>
    </radialGradient>
    <linearGradient id="arcGlow" x1="20%" y1="15%" x2="85%" y2="90%">
      <stop offset="0%" stop-color="#59d9ff" stop-opacity="0.6"/>
      <stop offset="100%" stop-color="#2aa7f0" stop-opacity="0.2"/>
    </linearGradient>
    <filter id="soft" x="-20%" y="-20%" width="140%" height="140%">
      <feGaussianBlur stdDeviation="1.6"/>
    </filter>
    <style>
      .stroke-main{fill:none;stroke:#4fe3ff;stroke-width:6.4;stroke-linecap:round;stroke-linejoin:round}
      .stroke-secondary{fill:none;stroke:#8df5ff;stroke-width:4;stroke-linecap:round;stroke-linejoin:round;opacity:0.55}
      .stroke-inner{fill:none;stroke:#bdfaff;stroke-width:3;stroke-linecap:round;stroke-linejoin:round;opacity:0.45}
    </style>
  </defs>

  <rect width="128" height="128" rx="24" fill="url(#bg)"/>
  <circle cx="64" cy="64" r="52" fill="none" stroke="url(#arcGlow)" stroke-width="6" opacity="0.6"/>
  <circle cx="64" cy="64" r="58" fill="none" stroke="#091321" stroke-width="6" opacity="0.35"/>

  <g transform="translate(0.5 0.5)">
    <!-- input leads -->
    <path class="stroke-main" d="M22 40h20M22 88h20"/>
    <!-- xor front arc -->
    <path class="stroke-secondary" d="M34 28c24 0 44 16 44 36s-20 36-44 36"/>
    <!-- primary XOR gate outline -->
    <path class="stroke-main" d="M44 28h20c32 0 54 20 54 36s-22 36-54 36H44"/>
    <!-- inner sheen -->
    <path class="stroke-inner" d="M46 34h18c28 0 48 18 48 30s-20 30-48 30H46"/>
    <!-- output lead -->
    <path class="stroke-main" d="M118 64h-18"/>
  </g>

  <path d="M33 28c24 0 44 16 44 36s-20 36-44 36" stroke="#11263c" stroke-width="8" stroke-linecap="round" fill="none" opacity="0.3" filter="url(#soft)"/>
</svg>
